STARTFONT 2.1
FONT -FontForge-Bm437 ToshibaLCD 8x16-Normal-R-Normal--16-120-96-96-C-80-WinRoman-0
SIZE 12 96 96
FONTBOUNDINGBOX 8 16 0 -3
COMMENT "Generated by fontforge, http://fontforge.sourceforge.net"
COMMENT "FON conversion © 2015 VileR, license: CC BY-SA 4.0"
STARTPROPERTIES 34
FOUNDRY "FontForge"
FAMILY_NAME "Bm437 ToshibaLCD 8x16"
WEIGHT_NAME "Normal"
SLANT "R"
SETWIDTH_NAME "Normal"
ADD_STYLE_NAME ""
PIXEL_SIZE 16
POINT_SIZE 120
RESOLUTION_X 96
RESOLUTION_Y 96
SPACING "C"
AVERAGE_WIDTH 80
CHARSET_REGISTRY "WinRoman"
CHARSET_ENCODING "0"
FONTNAME_REGISTRY ""
CHARSET_COLLECTIONS "WinRoman"
FONT_NAME "Bm437ToshibaLCD8x16"
FACE_NAME "Bm437 ToshibaLCD 8x16"
COPYRIGHT "FON conversion © 2015 VileR, license: CC BY-SA 4.0"
FONT_VERSION "001.000"
FONT_ASCENT 13
FONT_DESCENT 3
UNDERLINE_POSITION -2
UNDERLINE_THICKNESS 1
X_HEIGHT 7
CAP_HEIGHT 10
RAW_ASCENT 800
RAW_DESCENT 200
NORM_SPACE 8
RELATIVE_WEIGHT 40
RELATIVE_SETWIDTH 50
FIGURE_WIDTH 8
AVG_LOWERCASE_WIDTH 80
AVG_UPPERCASE_WIDTH 80
ENDPROPERTIES
CHARS 256
STARTCHAR uni0000
ENCODING 0
SWIDTH 500 0
DWIDTH 8 0
BBX 1 1 7 -3
BITMAP
00
ENDCHAR
STARTCHAR uni0001
ENCODING 1
SWIDTH 500 0
DWIDTH 8 0
BBX 8 13 0 -1
BITMAP
3C
42
81
81
A5
A5
81
81
A5
99
81
42
3C
ENDCHAR
STARTCHAR uni0002
ENCODING 2
SWIDTH 500 0
DWIDTH 8 0
BBX 8 13 0 -1
BITMAP
3C
7E
FF
FF
DB
DB
FF
FF
DB
E7
FF
7E
3C
ENDCHAR
STARTCHAR uni0003
ENCODING 3
SWIDTH 500 0
DWIDTH 8 0
BBX 7 11 0 0
BITMAP
6C
EE
FE
FE
FE
7C
7C
38
38
10
10
ENDCHAR
STARTCHAR uni0004
ENCODING 4
SWIDTH 500 0
DWIDTH 8 0
BBX 7 11 0 0
BITMAP
10
38
38
7C
7C
FE
7C
7C
38
38
10
ENDCHAR
STARTCHAR uni0005
ENCODING 5
SWIDTH 500 0
DWIDTH 8 0
BBX 7 11 0 0
BITMAP
38
38
38
10
D6
FE
FE
D6
10
10
38
ENDCHAR
STARTCHAR uni0006
ENCODING 6
SWIDTH 500 0
DWIDTH 8 0
BBX 7 11 0 0
BITMAP
10
38
38
7C
7C
FE
FE
D6
10
10
38
ENDCHAR
STARTCHAR uni0007
ENCODING 7
SWIDTH 500 0
DWIDTH 8 0
BBX 4 6 2 3
BITMAP
60
F0
F0
F0
F0
60
ENDCHAR
STARTCHAR uni0008
ENCODING 8
SWIDTH 500 0
DWIDTH 8 0
BBX 8 16 0 -3
BITMAP
FF
FF
FF
FF
E7
C3
C3
C3
C3
E7
FF
FF
FF
FF
FF
FF
ENDCHAR
STARTCHAR uni0009
ENCODING 9
SWIDTH 500 0
DWIDTH 8 0
BBX 6 9 1 1
BITMAP
78
48
CC
84
84
84
CC
48
78
ENDCHAR
STARTCHAR uni000A
ENCODING 10
SWIDTH 500 0
DWIDTH 8 0
BBX 8 16 0 -3
BITMAP
FF
FF
FF
C3
DB
99
BD
BD
BD
99
DB
C3
FF
FF
FF
FF
ENDCHAR
STARTCHAR uni000B
ENCODING 11
SWIDTH 500 0
DWIDTH 8 0
BBX 7 11 0 0
BITMAP
1E
06
0A
0A
10
70
88
88
88
88
70
ENDCHAR
STARTCHAR uni000C
ENCODING 12
SWIDTH 500 0
DWIDTH 8 0
BBX 5 11 1 0
BITMAP
70
88
88
88
88
70
20
20
F8
20
20
ENDCHAR
STARTCHAR uni000D
ENCODING 13
SWIDTH 500 0
DWIDTH 8 0
BBX 7 11 0 0
BITMAP
10
18
14
14
12
12
10
10
70
F0
E0
ENDCHAR
STARTCHAR uni000E
ENCODING 14
SWIDTH 500 0
DWIDTH 8 0
BBX 7 13 0 -1
BITMAP
20
30
2C
22
32
2E
22
22
E2
C2
02
0E
0C
ENDCHAR
STARTCHAR uni000F
ENCODING 15
SWIDTH 500 0
DWIDTH 8 0
BBX 7 13 0 -1
BITMAP
10
92
BA
44
44
44
C6
44
44
44
BA
92
10
ENDCHAR
STARTCHAR uni0010
ENCODING 16
SWIDTH 500 0
DWIDTH 8 0
BBX 7 7 0 2
BITMAP
80
E0
F8
FE
F8
E0
80
ENDCHAR
STARTCHAR uni0011
ENCODING 17
SWIDTH 500 0
DWIDTH 8 0
BBX 7 7 0 2
BITMAP
02
0E
3E
FE
3E
0E
02
ENDCHAR
STARTCHAR uni0012
ENCODING 18
SWIDTH 500 0
DWIDTH 8 0
BBX 5 13 1 -1
BITMAP
20
70
F8
A8
20
20
20
20
20
A8
F8
70
20
ENDCHAR
STARTCHAR uni0013
ENCODING 19
SWIDTH 500 0
DWIDTH 8 0
BBX 4 11 2 0
BITMAP
90
90
90
90
90
90
90
00
00
90
90
ENDCHAR
STARTCHAR uni0014
ENCODING 20
SWIDTH 500 0
DWIDTH 8 0
BBX 8 11 0 0
BITMAP
7F
92
92
92
92
72
12
12
12
12
12
ENDCHAR
STARTCHAR uni0015
ENCODING 21
SWIDTH 500 0
DWIDTH 8 0
BBX 7 13 0 -1
BITMAP
38
44
40
20
58
84
82
42
34
08
04
44
38
ENDCHAR
STARTCHAR uni0016
ENCODING 22
SWIDTH 500 0
DWIDTH 8 0
BBX 6 5 1 0
BITMAP
FC
FC
FC
FC
FC
ENDCHAR
STARTCHAR uni0017
ENCODING 23
SWIDTH 500 0
DWIDTH 8 0
BBX 8 14 0 -2
BITMAP
10
38
7C
54
10
10
10
10
54
7C
38
10
00
FF
ENDCHAR
STARTCHAR uni0018
ENCODING 24
SWIDTH 500 0
DWIDTH 8 0
BBX 5 11 1 0
BITMAP
20
70
F8
A8
20
20
20
20
20
20
20
ENDCHAR
STARTCHAR uni0019
ENCODING 25
SWIDTH 500 0
DWIDTH 8 0
BBX 5 11 1 0
BITMAP
20
20
20
20
20
20
20
A8
F8
70
20
ENDCHAR
STARTCHAR uni001A
ENCODING 26
SWIDTH 500 0
DWIDTH 8 0
BBX 7 5 0 3
BITMAP
18
0C
FE
0C
18
ENDCHAR
STARTCHAR uni001B
ENCODING 27
SWIDTH 500 0
DWIDTH 8 0
BBX 7 5 0 3
BITMAP
30
60
FE
60
30
ENDCHAR
STARTCHAR uni001C
ENCODING 28
SWIDTH 500 0
DWIDTH 8 0
BBX 6 6 1 2
BITMAP
80
80
80
80
80
FC
ENDCHAR
STARTCHAR uni001D
ENCODING 29
SWIDTH 500 0
DWIDTH 8 0
BBX 8 5 0 3
BITMAP
24
66
FF
66
24
ENDCHAR
STARTCHAR uni001E
ENCODING 30
SWIDTH 500 0
DWIDTH 8 0
BBX 7 7 0 2
BITMAP
10
10
38
38
7C
7C
FE
ENDCHAR
STARTCHAR uni001F
ENCODING 31
SWIDTH 500 0
DWIDTH 8 0
BBX 7 7 0 2
BITMAP
FE
7C
7C
38
38
10
10
ENDCHAR
STARTCHAR space
ENCODING 32
SWIDTH 500 0
DWIDTH 8 0
BBX 1 1 7 -3
BITMAP
00
ENDCHAR
STARTCHAR exclam
ENCODING 33
SWIDTH 500 0
DWIDTH 8 0
BBX 3 11 2 0
BITMAP
40
E0
E0
E0
40
40
40
00
00
40
40
ENDCHAR
STARTCHAR quotedbl
ENCODING 34
SWIDTH 500 0
DWIDTH 8 0
BBX 4 4 2 7
BITMAP
90
90
90
90
ENDCHAR
STARTCHAR numbersign
ENCODING 35
SWIDTH 500 0
DWIDTH 8 0
BBX 6 11 1 0
BITMAP
48
48
48
FC
48
48
48
FC
48
48
48
ENDCHAR
STARTCHAR dollar
ENCODING 36
SWIDTH 500 0
DWIDTH 8 0
BBX 6 15 1 -2
BITMAP
20
20
7C
84
80
80
80
78
04
04
04
84
F8
20
20
ENDCHAR
STARTCHAR percent
ENCODING 37
SWIDTH 500 0
DWIDTH 8 0
BBX 7 13 0 -1
BITMAP
60
90
90
92
64
08
10
20
4C
92
12
12
0C
ENDCHAR
STARTCHAR ampersand
ENCODING 38
SWIDTH 500 0
DWIDTH 8 0
BBX 7 11 0 0
BITMAP
38
44
44
28
30
50
8A
8A
84
8A
72
ENDCHAR
STARTCHAR quotesingle
ENCODING 39
SWIDTH 500 0
DWIDTH 8 0
BBX 2 4 3 7
BITMAP
40
40
80
80
ENDCHAR
STARTCHAR parenleft
ENCODING 40
SWIDTH 500 0
DWIDTH 8 0
BBX 4 13 2 -1
BITMAP
10
20
40
40
80
80
80
80
80
40
40
20
10
ENDCHAR
STARTCHAR parenright
ENCODING 41
SWIDTH 500 0
DWIDTH 8 0
BBX 4 13 1 -1
BITMAP
80
40
20
20
10
10
10
10
10
20
20
40
80
ENDCHAR
STARTCHAR asterisk
ENCODING 42
SWIDTH 500 0
DWIDTH 8 0
BBX 7 7 0 2
BITMAP
10
92
54
38
54
92
10
ENDCHAR
STARTCHAR plus
ENCODING 43
SWIDTH 500 0
DWIDTH 8 0
BBX 7 11 0 0
BITMAP
10
10
10
10
10
FE
10
10
10
10
10
ENDCHAR
STARTCHAR comma
ENCODING 44
SWIDTH 500 0
DWIDTH 8 0
BBX 2 4 2 -2
BITMAP
40
40
80
80
ENDCHAR
STARTCHAR hyphen
ENCODING 45
SWIDTH 500 0
DWIDTH 8 0
BBX 6 1 1 5
BITMAP
FC
ENDCHAR
STARTCHAR period
ENCODING 46
SWIDTH 500 0
DWIDTH 8 0
BBX 1 2 3 0
BITMAP
80
80
ENDCHAR
STARTCHAR slash
ENCODING 47
SWIDTH 500 0
DWIDTH 8 0
BBX 6 13 1 -1
BITMAP
04
04
08
08
10
10
20
20
20
40
40
80
80
ENDCHAR
STARTCHAR zero
ENCODING 48
SWIDTH 500 0
DWIDTH 8 0
BBX 6 11 1 0
BITMAP
78
84
8C
8C
94
94
A4
A4
C4
C4
78
ENDCHAR
STARTCHAR one
ENCODING 49
SWIDTH 500 0
DWIDTH 8 0
BBX 6 11 1 0
BITMAP
30
50
90
10
10
10
10
10
10
10
FC
ENDCHAR
STARTCHAR two
ENCODING 50
SWIDTH 500 0
DWIDTH 8 0
BBX 6 11 1 0
BITMAP
78
84
84
04
08
10
20
40
40
84
FC
ENDCHAR
STARTCHAR three
ENCODING 51
SWIDTH 500 0
DWIDTH 8 0
BBX 6 11 1 0
BITMAP
78
84
84
04
08
30
08
04
84
84
78
ENDCHAR
STARTCHAR four
ENCODING 52
SWIDTH 500 0
DWIDTH 8 0
BBX 7 11 0 0
BITMAP
0C
14
14
24
44
44
84
FE
04
04
1E
ENDCHAR
STARTCHAR five
ENCODING 53
SWIDTH 500 0
DWIDTH 8 0
BBX 6 11 1 0
BITMAP
FC
80
80
80
F8
84
04
04
04
84
78
ENDCHAR
STARTCHAR six
ENCODING 54
SWIDTH 500 0
DWIDTH 8 0
BBX 6 11 1 0
BITMAP
38
44
80
80
F8
84
84
84
84
84
78
ENDCHAR
STARTCHAR seven
ENCODING 55
SWIDTH 500 0
DWIDTH 8 0
BBX 7 11 0 0
BITMAP
FE
82
84
04
08
08
08
10
10
10
10
ENDCHAR
STARTCHAR eight
ENCODING 56
SWIDTH 500 0
DWIDTH 8 0
BBX 6 11 1 0
BITMAP
78
84
84
84
48
30
48
84
84
84
78
ENDCHAR
STARTCHAR nine
ENCODING 57
SWIDTH 500 0
DWIDTH 8 0
BBX 6 11 1 0
BITMAP
78
84
84
84
84
7C
04
04
04
88
70
ENDCHAR
STARTCHAR colon
ENCODING 58
SWIDTH 500 0
DWIDTH 8 0
BBX 1 8 3 0
BITMAP
80
80
00
00
00
00
80
80
ENDCHAR
STARTCHAR semicolon
ENCODING 59
SWIDTH 500 0
DWIDTH 8 0
BBX 2 10 2 -2
BITMAP
40
40
00
00
00
00
40
40
80
80
ENDCHAR
STARTCHAR less
ENCODING 60
SWIDTH 500 0
DWIDTH 8 0
BBX 6 11 1 0
BITMAP
04
08
10
20
40
80
40
20
10
08
04
ENDCHAR
STARTCHAR equal
ENCODING 61
SWIDTH 500 0
DWIDTH 8 0
BBX 6 5 1 3
BITMAP
FC
00
00
00
FC
ENDCHAR
STARTCHAR greater
ENCODING 62
SWIDTH 500 0
DWIDTH 8 0
BBX 6 11 1 0
BITMAP
80
40
20
10
08
04
08
10
20
40
80
ENDCHAR
STARTCHAR question
ENCODING 63
SWIDTH 500 0
DWIDTH 8 0
BBX 7 11 0 0
BITMAP
7C
82
82
02
04
08
10
10
00
10
10
ENDCHAR
STARTCHAR at
ENCODING 64
SWIDTH 500 0
DWIDTH 8 0
BBX 7 13 0 -1
BITMAP
38
44
82
9E
A2
A2
A2
A2
A2
9E
80
40
3C
ENDCHAR
STARTCHAR A
ENCODING 65
SWIDTH 500 0
DWIDTH 8 0
BBX 7 11 0 0
BITMAP
70
10
28
28
28
44
44
7C
82
82
C6
ENDCHAR
STARTCHAR B
ENCODING 66
SWIDTH 500 0
DWIDTH 8 0
BBX 7 11 0 0
BITMAP
FC
42
42
42
44
78
44
42
42
42
FC
ENDCHAR
STARTCHAR C
ENCODING 67
SWIDTH 500 0
DWIDTH 8 0
BBX 7 11 0 0
BITMAP
3E
42
82
80
80
80
80
82
82
44
38
ENDCHAR
STARTCHAR D
ENCODING 68
SWIDTH 500 0
DWIDTH 8 0
BBX 7 11 0 0
BITMAP
F8
44
42
42
42
42
42
42
42
44
F8
ENDCHAR
STARTCHAR E
ENCODING 69
SWIDTH 500 0
DWIDTH 8 0
BBX 7 11 0 0
BITMAP
FE
42
40
40
44
7C
44
40
40
42
FE
ENDCHAR
STARTCHAR F
ENCODING 70
SWIDTH 500 0
DWIDTH 8 0
BBX 7 11 0 0
BITMAP
FE
42
40
40
44
7C
44
40
40
40
F0
ENDCHAR
STARTCHAR G
ENCODING 71
SWIDTH 500 0
DWIDTH 8 0
BBX 7 11 0 0
BITMAP
3E
42
82
80
80
9E
82
82
82
42
3E
ENDCHAR
STARTCHAR H
ENCODING 72
SWIDTH 500 0
DWIDTH 8 0
BBX 7 11 0 0
BITMAP
E6
42
42
42
42
7E
42
42
42
42
E6
ENDCHAR
STARTCHAR I
ENCODING 73
SWIDTH 500 0
DWIDTH 8 0
BBX 5 11 1 0
BITMAP
F8
20
20
20
20
20
20
20
20
20
F8
ENDCHAR
STARTCHAR J
ENCODING 74
SWIDTH 500 0
DWIDTH 8 0
BBX 7 11 0 0
BITMAP
1E
04
04
04
04
04
04
84
84
88
70
ENDCHAR
STARTCHAR K
ENCODING 75
SWIDTH 500 0
DWIDTH 8 0
BBX 7 11 0 0
BITMAP
CE
84
88
90
A0
D0
88
88
84
84
CE
ENDCHAR
STARTCHAR L
ENCODING 76
SWIDTH 500 0
DWIDTH 8 0
BBX 7 11 0 0
BITMAP
E0
40
40
40
40
40
40
40
42
42
FE
ENDCHAR
STARTCHAR M
ENCODING 77
SWIDTH 500 0
DWIDTH 8 0
BBX 7 11 0 0
BITMAP
82
C6
AA
AA
92
92
82
82
82
82
C6
ENDCHAR
STARTCHAR N
ENCODING 78
SWIDTH 500 0
DWIDTH 8 0
BBX 7 11 0 0
BITMAP
C6
42
62
52
52
4A
4A
4A
46
42
E2
ENDCHAR
STARTCHAR O
ENCODING 79
SWIDTH 500 0
DWIDTH 8 0
BBX 7 11 0 0
BITMAP
38
44
82
82
82
82
82
82
82
44
38
ENDCHAR
STARTCHAR P
ENCODING 80
SWIDTH 500 0
DWIDTH 8 0
BBX 7 11 0 0
BITMAP
FC
42
42
42
42
7C
40
40
40
40
E0
ENDCHAR
STARTCHAR Q
ENCODING 81
SWIDTH 500 0
DWIDTH 8 0
BBX 7 13 0 -2
BITMAP
38
44
82
82
82
82
82
A2
92
4C
38
04
02
ENDCHAR
STARTCHAR R
ENCODING 82
SWIDTH 500 0
DWIDTH 8 0
BBX 7 11 0 0
BITMAP
FC
42
42
42
42
7C
44
44
42
42
E6
ENDCHAR
STARTCHAR S
ENCODING 83
SWIDTH 500 0
DWIDTH 8 0
BBX 6 11 1 0
BITMAP
7C
84
80
80
80
78
04
04
04
84
F8
ENDCHAR
STARTCHAR T
ENCODING 84
SWIDTH 500 0
DWIDTH 8 0
BBX 7 11 0 0
BITMAP
FE
92
92
10
10
10
10
10
10
10
38
ENDCHAR
STARTCHAR U
ENCODING 85
SWIDTH 500 0
DWIDTH 8 0
BBX 7 11 0 0
BITMAP
E6
42
42
42
42
42
42
42
42
44
38
ENDCHAR
STARTCHAR V
ENCODING 86
SWIDTH 500 0
DWIDTH 8 0
BBX 7 11 0 0
BITMAP
C6
82
82
44
44
44
28
28
28
10
10
ENDCHAR
STARTCHAR W
ENCODING 87
SWIDTH 500 0
DWIDTH 8 0
BBX 7 11 0 0
BITMAP
C6
82
82
92
92
92
54
54
54
6C
44
ENDCHAR
STARTCHAR X
ENCODING 88
SWIDTH 500 0
DWIDTH 8 0
BBX 7 11 0 0
BITMAP
C6
44
44
28
28
10
28
28
44
44
C6
ENDCHAR
STARTCHAR Y
ENCODING 89
SWIDTH 500 0
DWIDTH 8 0
BBX 7 11 0 0
BITMAP
C6
82
44
44
28
28
10
10
10
10
38
ENDCHAR
STARTCHAR Z
ENCODING 90
SWIDTH 500 0
DWIDTH 8 0
BBX 6 11 1 0
BITMAP
FC
84
08
08
10
20
20
40
40
84
FC
ENDCHAR
STARTCHAR bracketleft
ENCODING 91
SWIDTH 500 0
DWIDTH 8 0
BBX 4 13 2 -1
BITMAP
F0
80
80
80
80
80
80
80
80
80
80
80
F0
ENDCHAR
STARTCHAR backslash
ENCODING 92
SWIDTH 500 0
DWIDTH 8 0
BBX 6 13 1 -1
BITMAP
80
80
40
40
20
20
10
10
10
08
08
04
04
ENDCHAR
STARTCHAR bracketright
ENCODING 93
SWIDTH 500 0
DWIDTH 8 0
BBX 4 13 1 -1
BITMAP
F0
10
10
10
10
10
10
10
10
10
10
10
F0
ENDCHAR
STARTCHAR asciicircum
ENCODING 94
SWIDTH 500 0
DWIDTH 8 0
BBX 7 4 0 8
BITMAP
10
28
44
82
ENDCHAR
STARTCHAR underscore
ENCODING 95
SWIDTH 500 0
DWIDTH 8 0
BBX 8 1 0 -2
BITMAP
FF
ENDCHAR
STARTCHAR grave
ENCODING 96
SWIDTH 500 0
DWIDTH 8 0
BBX 2 4 2 8
BITMAP
80
80
40
40
ENDCHAR
STARTCHAR a
ENCODING 97
SWIDTH 500 0
DWIDTH 8 0
BBX 7 8 0 0
BITMAP
78
84
04
7C
84
84
8C
76
ENDCHAR
STARTCHAR b
ENCODING 98
SWIDTH 500 0
DWIDTH 8 0
BBX 7 11 0 0
BITMAP
C0
40
40
5C
62
42
42
42
42
62
DC
ENDCHAR
STARTCHAR c
ENCODING 99
SWIDTH 500 0
DWIDTH 8 0
BBX 6 8 1 0
BITMAP
7C
84
80
80
80
84
84
78
ENDCHAR
STARTCHAR d
ENCODING 100
SWIDTH 500 0
DWIDTH 8 0
BBX 7 11 0 0
BITMAP
0C
04
04
74
8C
84
84
84
84
8C
76
ENDCHAR
STARTCHAR e
ENCODING 101
SWIDTH 500 0
DWIDTH 8 0
BBX 6 8 1 0
BITMAP
78
84
84
FC
80
80
84
78
ENDCHAR
STARTCHAR f
ENCODING 102
SWIDTH 500 0
DWIDTH 8 0
BBX 6 11 1 0
BITMAP
1C
20
20
20
FC
20
20
20
20
20
F8
ENDCHAR
STARTCHAR g
ENCODING 103
SWIDTH 500 0
DWIDTH 8 0
BBX 7 10 0 -2
BITMAP
76
8C
84
84
84
8C
74
04
84
78
ENDCHAR
STARTCHAR h
ENCODING 104
SWIDTH 500 0
DWIDTH 8 0
BBX 7 11 0 0
BITMAP
C0
40
40
5C
62
42
42
42
42
42
C6
ENDCHAR
STARTCHAR i
ENCODING 105
SWIDTH 500 0
DWIDTH 8 0
BBX 6 11 1 0
BITMAP
30
00
00
70
10
10
10
10
10
10
FC
ENDCHAR
STARTCHAR j
ENCODING 106
SWIDTH 500 0
DWIDTH 8 0
BBX 6 13 0 -2
BITMAP
0C
00
00
1C
04
04
04
04
04
04
84
88
70
ENDCHAR
STARTCHAR k
ENCODING 107
SWIDTH 500 0
DWIDTH 8 0
BBX 7 11 0 0
BITMAP
C0
40
40
4E
44
48
50
68
44
42
C6
ENDCHAR
STARTCHAR l
ENCODING 108
SWIDTH 500 0
DWIDTH 8 0
BBX 6 11 1 0
BITMAP
70
10
10
10
10
10
10
10
10
10
FC
ENDCHAR
STARTCHAR m
ENCODING 109
SWIDTH 500 0
DWIDTH 8 0
BBX 7 8 0 0
BITMAP
AC
D2
92
92
92
92
92
D6
ENDCHAR
STARTCHAR n
ENCODING 110
SWIDTH 500 0
DWIDTH 8 0
BBX 7 8 0 0
BITMAP
DC
62
42
42
42
42
42
E6
ENDCHAR
STARTCHAR o
ENCODING 111
SWIDTH 500 0
DWIDTH 8 0
BBX 6 8 1 0
BITMAP
78
84
84
84
84
84
84
78
ENDCHAR
STARTCHAR p
ENCODING 112
SWIDTH 500 0
DWIDTH 8 0
BBX 7 10 0 -2
BITMAP
DC
62
42
42
42
62
5C
40
40
E0
ENDCHAR
STARTCHAR q
ENCODING 113
SWIDTH 500 0
DWIDTH 8 0
BBX 7 10 0 -2
BITMAP
76
8C
84
84
84
8C
74
04
04
0E
ENDCHAR
STARTCHAR r
ENCODING 114
SWIDTH 500 0
DWIDTH 8 0
BBX 6 8 1 0
BITMAP
DC
64
40
40
40
40
40
E0
ENDCHAR
STARTCHAR s
ENCODING 115
SWIDTH 500 0
DWIDTH 8 0
BBX 6 8 1 0
BITMAP
7C
84
80
60
18
04
84
F8
ENDCHAR
STARTCHAR t
ENCODING 116
SWIDTH 500 0
DWIDTH 8 0
BBX 6 10 0 0
BITMAP
20
20
FC
20
20
20
20
20
20
1C
ENDCHAR
STARTCHAR u
ENCODING 117
SWIDTH 500 0
DWIDTH 8 0
BBX 7 8 0 0
BITMAP
C6
42
42
42
42
42
46
3A
ENDCHAR
STARTCHAR v
ENCODING 118
SWIDTH 500 0
DWIDTH 8 0
BBX 7 8 0 0
BITMAP
C6
82
82
44
44
28
28
10
ENDCHAR
STARTCHAR w
ENCODING 119
SWIDTH 500 0
DWIDTH 8 0
BBX 7 8 0 0
BITMAP
C6
82
92
92
92
54
6C
44
ENDCHAR
STARTCHAR x
ENCODING 120
SWIDTH 500 0
DWIDTH 8 0
BBX 7 8 0 0
BITMAP
EE
44
28
10
10
28
44
EE
ENDCHAR
STARTCHAR y
ENCODING 121
SWIDTH 500 0
DWIDTH 8 0
BBX 7 10 0 -2
BITMAP
C6
82
82
44
44
28
28
10
10
60
ENDCHAR
STARTCHAR z
ENCODING 122
SWIDTH 500 0
DWIDTH 8 0
BBX 6 8 1 0
BITMAP
FC
84
08
10
20
40
84
FC
ENDCHAR
STARTCHAR braceleft
ENCODING 123
SWIDTH 500 0
DWIDTH 8 0
BBX 5 13 1 -1
BITMAP
18
20
20
20
20
20
C0
20
20
20
20
20
18
ENDCHAR
STARTCHAR bar
ENCODING 124
SWIDTH 500 0
DWIDTH 8 0
BBX 1 11 3 0
BITMAP
80
80
80
80
80
00
80
80
80
80
80
ENDCHAR
STARTCHAR braceright
ENCODING 125
SWIDTH 500 0
DWIDTH 8 0
BBX 5 13 1 -1
BITMAP
C0
20
20
20
20
20
18
20
20
20
20
20
C0
ENDCHAR
STARTCHAR asciitilde
ENCODING 126
SWIDTH 500 0
DWIDTH 8 0
BBX 7 4 0 8
BITMAP
60
92
92
0C
ENDCHAR
STARTCHAR uni007F
ENCODING 127
SWIDTH 500 0
DWIDTH 8 0
BBX 7 9 0 0
BITMAP
10
10
28
28
44
44
82
82
FE
ENDCHAR
STARTCHAR Euro
ENCODING 128
SWIDTH 500 0
DWIDTH 8 0
BBX 7 13 0 -2
BITMAP
3E
42
80
80
80
80
82
82
44
38
08
44
38
ENDCHAR
STARTCHAR NameMe.129
ENCODING 129
SWIDTH 500 0
DWIDTH 8 0
BBX 7 11 0 0
BITMAP
6C
00
00
C6
42
42
42
42
42
46
3A
ENDCHAR
STARTCHAR quotesinglbase
ENCODING 130
SWIDTH 500 0
DWIDTH 8 0
BBX 6 12 1 0
BITMAP
18
60
00
00
78
84
84
FC
80
80
84
78
ENDCHAR
STARTCHAR florin
ENCODING 131
SWIDTH 500 0
DWIDTH 8 0
BBX 7 12 0 0
BITMAP
10
28
44
00
78
84
04
7C
84
84
8C
76
ENDCHAR
STARTCHAR quotedblbase
ENCODING 132
SWIDTH 500 0
DWIDTH 8 0
BBX 7 11 0 0
BITMAP
6C
00
00
78
84
04
7C
84
84
8C
76
ENDCHAR
STARTCHAR ellipsis
ENCODING 133
SWIDTH 500 0
DWIDTH 8 0
BBX 7 12 0 0
BITMAP
60
18
00
00
78
84
04
7C
84
84
8C
76
ENDCHAR
STARTCHAR dagger
ENCODING 134
SWIDTH 500 0
DWIDTH 8 0
BBX 7 12 0 0
BITMAP
30
48
30
00
78
84
04
7C
84
84
8C
76
ENDCHAR
STARTCHAR daggerdbl
ENCODING 135
SWIDTH 500 0
DWIDTH 8 0
BBX 6 10 1 -2
BITMAP
7C
84
80
80
84
84
78
10
08
70
ENDCHAR
STARTCHAR circumflex
ENCODING 136
SWIDTH 500 0
DWIDTH 8 0
BBX 6 12 1 0
BITMAP
20
50
88
00
78
84
84
FC
80
80
84
78
ENDCHAR
STARTCHAR perthousand
ENCODING 137
SWIDTH 500 0
DWIDTH 8 0
BBX 6 11 1 0
BITMAP
D8
00
00
78
84
84
FC
80
80
84
78
ENDCHAR
STARTCHAR Scaron
ENCODING 138
SWIDTH 500 0
DWIDTH 8 0
BBX 6 12 1 0
BITMAP
60
18
00
00
78
84
84
FC
80
80
84
78
ENDCHAR
STARTCHAR guilsinglleft
ENCODING 139
SWIDTH 500 0
DWIDTH 8 0
BBX 6 11 1 0
BITMAP
D8
00
00
70
10
10
10
10
10
10
FC
ENDCHAR
STARTCHAR OE
ENCODING 140
SWIDTH 500 0
DWIDTH 8 0
BBX 6 12 1 0
BITMAP
20
50
88
00
70
10
10
10
10
10
10
FC
ENDCHAR
STARTCHAR NameMe.141
ENCODING 141
SWIDTH 500 0
DWIDTH 8 0
BBX 6 12 1 0
BITMAP
60
18
00
00
70
10
10
10
10
10
10
FC
ENDCHAR
STARTCHAR Zcaron
ENCODING 142
SWIDTH 500 0
DWIDTH 8 0
BBX 7 13 0 0
BITMAP
6C
00
70
10
28
28
28
44
44
7C
82
82
C6
ENDCHAR
STARTCHAR NameMe.143
ENCODING 143
SWIDTH 500 0
DWIDTH 8 0
BBX 7 13 0 0
BITMAP
30
48
30
00
70
28
28
44
44
7C
82
82
C6
ENDCHAR
STARTCHAR NameMe.144
ENCODING 144
SWIDTH 500 0
DWIDTH 8 0
BBX 7 13 0 0
BITMAP
0C
30
00
FE
42
40
44
7C
44
40
40
42
FE
ENDCHAR
STARTCHAR quoteleft
ENCODING 145
SWIDTH 500 0
DWIDTH 8 0
BBX 7 8 0 0
BITMAP
6C
92
12
7E
90
90
92
6C
ENDCHAR
STARTCHAR quoteright
ENCODING 146
SWIDTH 500 0
DWIDTH 8 0
BBX 7 11 0 0
BITMAP
3E
1A
28
28
28
4E
48
78
88
8A
CE
ENDCHAR
STARTCHAR quotedblleft
ENCODING 147
SWIDTH 500 0
DWIDTH 8 0
BBX 6 12 1 0
BITMAP
20
50
88
00
78
84
84
84
84
84
84
78
ENDCHAR
STARTCHAR quotedblright
ENCODING 148
SWIDTH 500 0
DWIDTH 8 0
BBX 6 11 1 0
BITMAP
D8
00
00
78
84
84
84
84
84
84
78
ENDCHAR
STARTCHAR bullet
ENCODING 149
SWIDTH 500 0
DWIDTH 8 0
BBX 6 12 1 0
BITMAP
60
18
00
00
78
84
84
84
84
84
84
78
ENDCHAR
STARTCHAR endash
ENCODING 150
SWIDTH 500 0
DWIDTH 8 0
BBX 7 12 0 0
BITMAP
10
28
44
00
C6
42
42
42
42
42
46
3A
ENDCHAR
STARTCHAR emdash
ENCODING 151
SWIDTH 500 0
DWIDTH 8 0
BBX 7 12 0 0
BITMAP
30
0C
00
00
C6
42
42
42
42
42
46
3A
ENDCHAR
STARTCHAR tilde
ENCODING 152
SWIDTH 500 0
DWIDTH 8 0
BBX 7 13 0 -2
BITMAP
6C
00
00
C6
82
82
44
44
28
28
10
10
60
ENDCHAR
STARTCHAR trademark
ENCODING 153
SWIDTH 500 0
DWIDTH 8 0
BBX 7 13 0 0
BITMAP
6C
00
38
44
82
82
82
82
82
82
82
44
38
ENDCHAR
STARTCHAR scaron
ENCODING 154
SWIDTH 500 0
DWIDTH 8 0
BBX 7 13 0 0
BITMAP
6C
00
E6
42
42
42
42
42
42
42
42
44
38
ENDCHAR
STARTCHAR guilsinglright
ENCODING 155
SWIDTH 500 0
DWIDTH 8 0
BBX 6 12 1 -2
BITMAP
20
20
7C
84
80
80
80
84
84
78
20
20
ENDCHAR
STARTCHAR oe
ENCODING 156
SWIDTH 500 0
DWIDTH 8 0
BBX 7 11 0 0
BITMAP
1C
22
20
20
7C
20
20
20
20
62
9C
ENDCHAR
STARTCHAR NameMe.157
ENCODING 157
SWIDTH 500 0
DWIDTH 8 0
BBX 7 11 0 0
BITMAP
C6
82
44
44
28
EE
10
FE
10
10
38
ENDCHAR
STARTCHAR zcaron
ENCODING 158
SWIDTH 500 0
DWIDTH 8 0
BBX 7 11 0 0
BITMAP
E0
90
94
94
9E
94
E4
84
84
84
86
ENDCHAR
STARTCHAR Ydieresis
ENCODING 159
SWIDTH 500 0
DWIDTH 8 0
BBX 7 13 0 -2
BITMAP
0E
10
10
10
7E
10
10
10
10
10
10
10
E0
ENDCHAR
STARTCHAR uni00A0
ENCODING 160
SWIDTH 500 0
DWIDTH 8 0
BBX 7 12 0 0
BITMAP
18
60
00
00
78
84
04
7C
84
84
8C
76
ENDCHAR
STARTCHAR exclamdown
ENCODING 161
SWIDTH 500 0
DWIDTH 8 0
BBX 6 12 1 0
BITMAP
30
C0
00
00
70
10
10
10
10
10
10
FC
ENDCHAR
STARTCHAR cent
ENCODING 162
SWIDTH 500 0
DWIDTH 8 0
BBX 6 12 1 0
BITMAP
30
C0
00
00
78
84
84
84
84
84
84
78
ENDCHAR
STARTCHAR sterling
ENCODING 163
SWIDTH 500 0
DWIDTH 8 0
BBX 7 12 0 0
BITMAP
18
60
00
00
C6
42
42
42
42
42
46
3A
ENDCHAR
STARTCHAR currency
ENCODING 164
SWIDTH 500 0
DWIDTH 8 0
BBX 7 12 0 0
BITMAP
32
4C
00
00
DC
62
42
42
42
42
42
E6
ENDCHAR
STARTCHAR yen
ENCODING 165
SWIDTH 500 0
DWIDTH 8 0
BBX 7 13 0 0
BITMAP
32
4C
00
C6
42
62
52
52
4A
4A
46
42
E2
ENDCHAR
STARTCHAR brokenbar
ENCODING 166
SWIDTH 500 0
DWIDTH 8 0
BBX 7 10 0 -2
BITMAP
78
84
04
7C
84
84
8C
76
00
FE
ENDCHAR
STARTCHAR section
ENCODING 167
SWIDTH 500 0
DWIDTH 8 0
BBX 6 10 1 -2
BITMAP
78
84
84
84
84
84
84
78
00
FC
ENDCHAR
STARTCHAR dieresis
ENCODING 168
SWIDTH 500 0
DWIDTH 8 0
BBX 7 11 0 -2
BITMAP
10
10
00
10
10
20
40
80
82
82
7C
ENDCHAR
STARTCHAR copyright
ENCODING 169
SWIDTH 500 0
DWIDTH 8 0
BBX 6 6 1 2
BITMAP
FC
80
80
80
80
80
ENDCHAR
STARTCHAR ordfeminine
ENCODING 170
SWIDTH 500 0
DWIDTH 8 0
BBX 6 6 1 2
BITMAP
FC
04
04
04
04
04
ENDCHAR
STARTCHAR guillemotleft
ENCODING 171
SWIDTH 500 0
DWIDTH 8 0
BBX 7 15 0 -2
BITMAP
C0
40
40
42
44
E8
10
20
4C
92
12
04
08
10
1E
ENDCHAR
STARTCHAR logicalnot
ENCODING 172
SWIDTH 500 0
DWIDTH 8 0
BBX 7 15 0 -2
BITMAP
C0
40
40
40
42
E4
08
10
24
4C
94
24
3E
04
0E
ENDCHAR
STARTCHAR uni00AD
ENCODING 173
SWIDTH 500 0
DWIDTH 8 0
BBX 3 11 2 -2
BITMAP
40
40
00
00
40
40
40
E0
E0
E0
40
ENDCHAR
STARTCHAR registered
ENCODING 174
SWIDTH 500 0
DWIDTH 8 0
BBX 7 7 0 2
BITMAP
12
24
48
90
48
24
12
ENDCHAR
STARTCHAR macron
ENCODING 175
SWIDTH 500 0
DWIDTH 8 0
BBX 7 7 0 2
BITMAP
90
48
24
12
24
48
90
ENDCHAR
STARTCHAR degree
ENCODING 176
SWIDTH 500 0
DWIDTH 8 0
BBX 7 16 0 -3
BITMAP
22
22
88
88
22
22
88
88
22
22
88
88
22
22
88
88
ENDCHAR
STARTCHAR plusminus
ENCODING 177
SWIDTH 500 0
DWIDTH 8 0
BBX 8 16 0 -3
BITMAP
55
55
AA
AA
55
55
AA
AA
55
55
AA
AA
55
55
AA
AA
ENDCHAR
STARTCHAR uni00B2
ENCODING 178
SWIDTH 500 0
DWIDTH 8 0
BBX 8 16 0 -3
BITMAP
DB
DB
77
77
DB
DB
EE
EE
DB
DB
77
77
DB
DB
EE
EE
ENDCHAR
STARTCHAR uni00B3
ENCODING 179
SWIDTH 500 0
DWIDTH 8 0
BBX 1 16 3 -3
BITMAP
80
80
80
80
80
80
80
80
80
80
80
80
80
80
80
80
ENDCHAR
STARTCHAR acute
ENCODING 180
SWIDTH 500 0
DWIDTH 8 0
BBX 4 16 0 -3
BITMAP
10
10
10
10
10
10
10
10
F0
10
10
10
10
10
10
10
ENDCHAR
STARTCHAR mu
ENCODING 181
SWIDTH 500 0
DWIDTH 8 0
BBX 4 16 0 -3
BITMAP
10
10
10
10
10
F0
10
10
F0
10
10
10
10
10
10
10
ENDCHAR
STARTCHAR paragraph
ENCODING 182
SWIDTH 500 0
DWIDTH 8 0
BBX 6 16 0 -3
BITMAP
14
14
14
14
14
14
14
14
F4
14
14
14
14
14
14
14
ENDCHAR
STARTCHAR periodcentered
ENCODING 183
SWIDTH 500 0
DWIDTH 8 0
BBX 6 8 0 -3
BITMAP
FC
14
14
14
14
14
14
14
ENDCHAR
STARTCHAR cedilla
ENCODING 184
SWIDTH 500 0
DWIDTH 8 0
BBX 4 11 0 -3
BITMAP
F0
10
10
F0
10
10
10
10
10
10
10
ENDCHAR
STARTCHAR uni00B9
ENCODING 185
SWIDTH 500 0
DWIDTH 8 0
BBX 6 16 0 -3
BITMAP
14
14
14
14
14
F4
04
04
F4
14
14
14
14
14
14
14
ENDCHAR
STARTCHAR ordmasculine
ENCODING 186
SWIDTH 500 0
DWIDTH 8 0
BBX 3 16 3 -3
BITMAP
A0
A0
A0
A0
A0
A0
A0
A0
A0
A0
A0
A0
A0
A0
A0
A0
ENDCHAR
STARTCHAR guillemotright
ENCODING 187
SWIDTH 500 0
DWIDTH 8 0
BBX 6 11 0 -3
BITMAP
FC
04
04
F4
14
14
14
14
14
14
14
ENDCHAR
STARTCHAR onequarter
ENCODING 188
SWIDTH 500 0
DWIDTH 8 0
BBX 6 9 0 4
BITMAP
14
14
14
14
14
F4
04
04
FC
ENDCHAR
STARTCHAR onehalf
ENCODING 189
SWIDTH 500 0
DWIDTH 8 0
BBX 6 9 0 4
BITMAP
14
14
14
14
14
14
14
14
FC
ENDCHAR
STARTCHAR threequarters
ENCODING 190
SWIDTH 500 0
DWIDTH 8 0
BBX 4 9 0 4
BITMAP
10
10
10
10
10
F0
10
10
F0
ENDCHAR
STARTCHAR questiondown
ENCODING 191
SWIDTH 500 0
DWIDTH 8 0
BBX 4 8 0 -3
BITMAP
F0
10
10
10
10
10
10
10
ENDCHAR
STARTCHAR Agrave
ENCODING 192
SWIDTH 500 0
DWIDTH 8 0
BBX 5 9 3 4
BITMAP
80
80
80
80
80
80
80
80
F8
ENDCHAR
STARTCHAR Aacute
ENCODING 193
SWIDTH 500 0
DWIDTH 8 0
BBX 8 9 0 4
BITMAP
10
10
10
10
10
10
10
10
FF
ENDCHAR
STARTCHAR Acircumflex
ENCODING 194
SWIDTH 500 0
DWIDTH 8 0
BBX 8 8 0 -3
BITMAP
FF
10
10
10
10
10
10
10
ENDCHAR
STARTCHAR Atilde
ENCODING 195
SWIDTH 500 0
DWIDTH 8 0
BBX 5 16 3 -3
BITMAP
80
80
80
80
80
80
80
80
F8
80
80
80
80
80
80
80
ENDCHAR
STARTCHAR Adieresis
ENCODING 196
SWIDTH 500 0
DWIDTH 8 0
BBX 8 1 0 4
BITMAP
FF
ENDCHAR
STARTCHAR Aring
ENCODING 197
SWIDTH 500 0
DWIDTH 8 0
BBX 8 16 0 -3
BITMAP
10
10
10
10
10
10
10
10
FF
10
10
10
10
10
10
10
ENDCHAR
STARTCHAR AE
ENCODING 198
SWIDTH 500 0
DWIDTH 8 0
BBX 5 16 3 -3
BITMAP
80
80
80
80
80
F8
80
80
F8
80
80
80
80
80
80
80
ENDCHAR
STARTCHAR Ccedilla
ENCODING 199
SWIDTH 500 0
DWIDTH 8 0
BBX 5 16 3 -3
BITMAP
A0
A0
A0
A0
A0
A0
A0
A0
B8
A0
A0
A0
A0
A0
A0
A0
ENDCHAR
STARTCHAR Egrave
ENCODING 200
SWIDTH 500 0
DWIDTH 8 0
BBX 5 9 3 4
BITMAP
A0
A0
A0
A0
A0
B8
80
80
F8
ENDCHAR
STARTCHAR Eacute
ENCODING 201
SWIDTH 500 0
DWIDTH 8 0
BBX 5 11 3 -3
BITMAP
F8
80
80
B8
A0
A0
A0
A0
A0
A0
A0
ENDCHAR
STARTCHAR Ecircumflex
ENCODING 202
SWIDTH 500 0
DWIDTH 8 0
BBX 8 9 0 4
BITMAP
14
14
14
14
14
F7
00
00
FF
ENDCHAR
STARTCHAR Edieresis
ENCODING 203
SWIDTH 500 0
DWIDTH 8 0
BBX 8 11 0 -3
BITMAP
FF
00
00
F7
14
14
14
14
14
14
14
ENDCHAR
STARTCHAR Igrave
ENCODING 204
SWIDTH 500 0
DWIDTH 8 0
BBX 5 16 3 -3
BITMAP
A0
A0
A0
A0
A0
B8
80
80
B8
A0
A0
A0
A0
A0
A0
A0
ENDCHAR
STARTCHAR Iacute
ENCODING 205
SWIDTH 500 0
DWIDTH 8 0
BBX 8 4 0 4
BITMAP
FF
00
00
FF
ENDCHAR
STARTCHAR Icircumflex
ENCODING 206
SWIDTH 500 0
DWIDTH 8 0
BBX 8 16 0 -3
BITMAP
14
14
14
14
14
F7
00
00
F7
14
14
14
14
14
14
14
ENDCHAR
STARTCHAR Idieresis
ENCODING 207
SWIDTH 500 0
DWIDTH 8 0
BBX 8 9 0 4
BITMAP
10
10
10
10
10
FF
00
00
FF
ENDCHAR
STARTCHAR Eth
ENCODING 208
SWIDTH 500 0
DWIDTH 8 0
BBX 8 9 0 4
BITMAP
14
14
14
14
14
14
14
14
FF
ENDCHAR
STARTCHAR Ntilde
ENCODING 209
SWIDTH 500 0
DWIDTH 8 0
BBX 8 11 0 -3
BITMAP
FF
00
00
FF
10
10
10
10
10
10
10
ENDCHAR
STARTCHAR Ograve
ENCODING 210
SWIDTH 500 0
DWIDTH 8 0
BBX 8 8 0 -3
BITMAP
FF
14
14
14
14
14
14
14
ENDCHAR
STARTCHAR Oacute
ENCODING 211
SWIDTH 500 0
DWIDTH 8 0
BBX 5 9 3 4
BITMAP
A0
A0
A0
A0
A0
A0
A0
A0
F8
ENDCHAR
STARTCHAR Ocircumflex
ENCODING 212
SWIDTH 500 0
DWIDTH 8 0
BBX 5 9 3 4
BITMAP
80
80
80
80
80
F8
80
80
F8
ENDCHAR
STARTCHAR Otilde
ENCODING 213
SWIDTH 500 0
DWIDTH 8 0
BBX 5 11 3 -3
BITMAP
F8
80
80
F8
80
80
80
80
80
80
80
ENDCHAR
STARTCHAR Odieresis
ENCODING 214
SWIDTH 500 0
DWIDTH 8 0
BBX 5 8 3 -3
BITMAP
F8
A0
A0
A0
A0
A0
A0
A0
ENDCHAR
STARTCHAR multiply
ENCODING 215
SWIDTH 500 0
DWIDTH 8 0
BBX 8 16 0 -3
BITMAP
14
14
14
14
14
14
14
14
FF
14
14
14
14
14
14
14
ENDCHAR
STARTCHAR Oslash
ENCODING 216
SWIDTH 500 0
DWIDTH 8 0
BBX 8 16 0 -3
BITMAP
10
10
10
10
10
FF
10
10
FF
10
10
10
10
10
10
10
ENDCHAR
STARTCHAR Ugrave
ENCODING 217
SWIDTH 500 0
DWIDTH 8 0
BBX 4 9 0 4
BITMAP
10
10
10
10
10
10
10
10
F0
ENDCHAR
STARTCHAR Uacute
ENCODING 218
SWIDTH 500 0
DWIDTH 8 0
BBX 5 8 3 -3
BITMAP
F8
80
80
80
80
80
80
80
ENDCHAR
STARTCHAR Ucircumflex
ENCODING 219
SWIDTH 500 0
DWIDTH 8 0
BBX 8 16 0 -3
BITMAP
FF
FF
FF
FF
FF
FF
FF
FF
FF
FF
FF
FF
FF
FF
FF
FF
ENDCHAR
STARTCHAR Udieresis
ENCODING 220
SWIDTH 500 0
DWIDTH 8 0
BBX 8 8 0 -3
BITMAP
FF
FF
FF
FF
FF
FF
FF
FF
ENDCHAR
STARTCHAR Yacute
ENCODING 221
SWIDTH 500 0
DWIDTH 8 0
BBX 4 16 0 -3
BITMAP
F0
F0
F0
F0
F0
F0
F0
F0
F0
F0
F0
F0
F0
F0
F0
F0
ENDCHAR
STARTCHAR Thorn
ENCODING 222
SWIDTH 500 0
DWIDTH 8 0
BBX 4 16 4 -3
BITMAP
F0
F0
F0
F0
F0
F0
F0
F0
F0
F0
F0
F0
F0
F0
F0
F0
ENDCHAR
STARTCHAR germandbls
ENCODING 223
SWIDTH 500 0
DWIDTH 8 0
BBX 8 8 0 5
BITMAP
FF
FF
FF
FF
FF
FF
FF
FF
ENDCHAR
STARTCHAR agrave
ENCODING 224
SWIDTH 500 0
DWIDTH 8 0
BBX 7 8 0 0
BITMAP
62
92
94
88
88
94
92
62
ENDCHAR
STARTCHAR aacute
ENCODING 225
SWIDTH 500 0
DWIDTH 8 0
BBX 6 13 1 -2
BITMAP
70
88
88
88
B0
88
84
84
84
84
B8
80
80
ENDCHAR
STARTCHAR acircumflex
ENCODING 226
SWIDTH 500 0
DWIDTH 8 0
BBX 7 11 0 0
BITMAP
FE
42
42
40
40
40
40
40
40
40
E0
ENDCHAR
STARTCHAR atilde
ENCODING 227
SWIDTH 500 0
DWIDTH 8 0
BBX 7 8 0 0
BITMAP
7E
A4
24
24
24
24
24
24
ENDCHAR
STARTCHAR adieresis
ENCODING 228
SWIDTH 500 0
DWIDTH 8 0
BBX 7 11 0 0
BITMAP
FE
42
20
20
10
08
10
20
20
42
FE
ENDCHAR
STARTCHAR aring
ENCODING 229
SWIDTH 500 0
DWIDTH 8 0
BBX 7 8 0 0
BITMAP
7E
88
84
84
84
84
84
78
ENDCHAR
STARTCHAR ae
ENCODING 230
SWIDTH 500 0
DWIDTH 8 0
BBX 7 10 0 -2
BITMAP
CC
44
44
44
44
44
64
5A
40
40
ENDCHAR
STARTCHAR ccedilla
ENCODING 231
SWIDTH 500 0
DWIDTH 8 0
BBX 7 10 0 -2
BITMAP
66
98
10
10
10
10
10
10
10
10
ENDCHAR
STARTCHAR egrave
ENCODING 232
SWIDTH 500 0
DWIDTH 8 0
BBX 5 11 1 0
BITMAP
F8
20
20
70
88
88
88
70
20
20
F8
ENDCHAR
STARTCHAR eacute
ENCODING 233
SWIDTH 500 0
DWIDTH 8 0
BBX 6 11 1 0
BITMAP
30
48
84
84
84
FC
84
84
84
48
30
ENDCHAR
STARTCHAR ecircumflex
ENCODING 234
SWIDTH 500 0
DWIDTH 8 0
BBX 7 11 0 0
BITMAP
38
44
82
82
82
82
82
44
44
28
EE
ENDCHAR
STARTCHAR edieresis
ENCODING 235
SWIDTH 500 0
DWIDTH 8 0
BBX 6 11 1 0
BITMAP
78
84
40
20
78
84
84
84
84
84
78
ENDCHAR
STARTCHAR igrave
ENCODING 236
SWIDTH 500 0
DWIDTH 8 0
BBX 7 6 0 2
BITMAP
44
AA
92
92
AA
44
ENDCHAR
STARTCHAR iacute
ENCODING 237
SWIDTH 500 0
DWIDTH 8 0
BBX 7 12 0 -1
BITMAP
02
02
3C
44
8A
92
92
A2
44
78
80
80
ENDCHAR
STARTCHAR icircumflex
ENCODING 238
SWIDTH 500 0
DWIDTH 8 0
BBX 6 11 1 0
BITMAP
3C
40
80
80
80
FC
80
80
80
40
3C
ENDCHAR
STARTCHAR idieresis
ENCODING 239
SWIDTH 500 0
DWIDTH 8 0
BBX 6 11 1 0
BITMAP
30
48
84
84
84
84
84
84
84
84
84
ENDCHAR
STARTCHAR eth
ENCODING 240
SWIDTH 500 0
DWIDTH 8 0
BBX 6 7 1 2
BITMAP
FC
00
00
FC
00
00
FC
ENDCHAR
STARTCHAR ntilde
ENCODING 241
SWIDTH 500 0
DWIDTH 8 0
BBX 7 10 0 1
BITMAP
10
10
10
FE
10
10
10
00
00
FE
ENDCHAR
STARTCHAR ograve
ENCODING 242
SWIDTH 500 0
DWIDTH 8 0
BBX 7 10 0 1
BITMAP
C0
30
0C
02
0C
30
C0
00
00
FE
ENDCHAR
STARTCHAR oacute
ENCODING 243
SWIDTH 500 0
DWIDTH 8 0
BBX 7 10 0 1
BITMAP
06
18
60
80
60
18
06
00
00
FE
ENDCHAR
STARTCHAR ocircumflex
ENCODING 244
SWIDTH 500 0
DWIDTH 8 0
BBX 4 15 3 -3
BITMAP
30
50
40
40
80
80
80
80
80
80
80
80
80
80
80
ENDCHAR
STARTCHAR otilde
ENCODING 245
SWIDTH 500 0
DWIDTH 8 0
BBX 4 15 0 -2
BITMAP
10
10
10
10
10
10
10
10
10
10
10
20
20
A0
C0
ENDCHAR
STARTCHAR odieresis
ENCODING 246
SWIDTH 500 0
DWIDTH 8 0
BBX 7 11 0 0
BITMAP
10
10
00
00
00
FE
00
00
00
10
10
ENDCHAR
STARTCHAR divide
ENCODING 247
SWIDTH 500 0
DWIDTH 8 0
BBX 7 7 0 2
BITMAP
62
92
8C
00
62
92
8C
ENDCHAR
STARTCHAR oslash
ENCODING 248
SWIDTH 500 0
DWIDTH 8 0
BBX 4 4 2 8
BITMAP
60
90
90
60
ENDCHAR
STARTCHAR ugrave
ENCODING 249
SWIDTH 500 0
DWIDTH 8 0
BBX 3 4 2 4
BITMAP
E0
E0
E0
E0
ENDCHAR
STARTCHAR uacute
ENCODING 250
SWIDTH 500 0
DWIDTH 8 0
BBX 3 2 2 5
BITMAP
E0
E0
ENDCHAR
STARTCHAR ucircumflex
ENCODING 251
SWIDTH 500 0
DWIDTH 8 0
BBX 8 12 0 0
BITMAP
0F
08
08
08
08
10
90
90
50
50
20
20
ENDCHAR
STARTCHAR udieresis
ENCODING 252
SWIDTH 500 0
DWIDTH 8 0
BBX 4 5 1 8
BITMAP
B0
D0
90
90
90
ENDCHAR
STARTCHAR yacute
ENCODING 253
SWIDTH 500 0
DWIDTH 8 0
BBX 4 5 1 8
BITMAP
60
90
20
40
F0
ENDCHAR
STARTCHAR thorn
ENCODING 254
SWIDTH 500 0
DWIDTH 8 0
BBX 4 6 2 3
BITMAP
F0
F0
F0
F0
F0
F0
ENDCHAR
STARTCHAR ydieresis
ENCODING 255
SWIDTH 500 0
DWIDTH 8 0
BBX 1 1 7 -3
BITMAP
00
ENDCHAR
ENDFONT
